# xmcd
# 
# Track frame offsets:
#     150
#     19878
#     37115
#     53698
#     71273
#     91253
#     109211
#     128133
#     146397
#     165067
# 
# Disc length: 2367
# 
# Revision: 6
# Processed by: cddbd v1.5.2PL0 Copyright (c) Steve Scherf et al.
# Submitted via: fre:ac v1.0.31
# 
DISCID=79093d0a
DTITLE=Tina Dico - Whispers
DYEAR=2014
DGENRE=Blues
TTITLE0=The Woman Downstairs
TTITLE1=As Far As Love Goes
TTITLE2=Someone You Love
TTITLE3=Drifting
TTITLE4=Mines
TTITLE5=Whispers
TTITLE6=You Dont Step Into Love
TTITLE7=Old Friends
TTITLE8=I Want You
TTITLE9=Thank You
EXTD=YEAR: 2014
EXTT0=
EXTT1=
EXTT2=
EXTT3=
EXTT4=
EXTT5=
EXTT6=
EXTT7=
EXTT8=
EXTT9=
PLAYORDER=
